<?xml version="1.0" encoding="UTF-8" standalone="no"?>
<svg width="146px" height="58px" viewBox="0 0 146 58" version="1.1" xmlns="http://www.w3.org/2000/svg" xmlns:xlink="http://www.w3.org/1999/xlink" xmlns:sketch="http://www.bohemiancoding.com/sketch/ns">
    <!-- Generator: Sketch 3.1.1 (8761) - http://www.bohemiancoding.com/sketch -->
    <title>Slice 2</title>
    <desc>Created with Sketch.</desc>
    <defs></defs>
    <g id="Page-1" stroke="none" stroke-width="1" fill="none" fill-rule="evenodd" sketch:type="MSPage">
        <g id="tud_logo_white" sketch:type="MSLayerGroup" transform="translate(-13.000000, -14.000000)" fill="#FFFFFF">
            <g sketch:type="MSShapeGroup">
                <path d="M55.88856,65.4312727 C59.518368,65.4312727 61.488336,63.024 61.488336,59.648 L61.488336,42.4232727 L69.206592,42.4232727 L69.206592,60.0334545 C69.129424,67.7847273 62.91376,70.8276364 55.88856,70.8276364 C48.86336,70.8276364 42.649152,67.7847273 42.571984,60.0334545 L42.571984,42.4232727 L50.29024,42.4232727 L50.29024,59.648 C50.29024,63.024 52.260208,65.4312727 55.88856,65.4312727" id="Fill-1"></path>
                <path d="M22.57528,70.2545455 L30.293536,70.2545455 L30.293536,47.824 L38.94072,47.824 L38.94072,42.4247273 L13.929552,42.4247273 L13.929552,47.824 L22.57528,47.824 L22.57528,70.2545455" id="Fill-3"></path>
                <path d="M41.115984,28.8727273 C39.233376,29.4618182 37.291072,28.9905455 37.296896,26.4741818 C37.299808,22.64 46.312448,19.4269091 47.563152,16.0756364 C47.871824,15.2407273 47.890752,14.5527273 47.491808,14.5745455 C47.204976,14.5905455 47.4292,15.0065455 46.797296,15.6392727 C43.064112,19.3701818 36.80768,19.3643636 32.007248,21.5127273 C28.859376,22.9250909 19.63416,27.2610909 21.758464,36.9352727 C21.858928,37.3934545 22.134112,38.9338182 22.41512,38.9338182 C22.74272,38.9338182 22.739808,38.0189091 22.731072,36.9076364 C22.659728,31.1476364 29.486912,29.5418182 31.708768,25.7789091 C31.97376,25.328 32.433856,24.6967273 32.543056,24.9905455 C32.595472,25.1316364 32.561984,25.3410909 32.471712,25.7410909 C31.7772,28.8334545 28.539056,30.8189091 29.456336,33.0283636 C30.644432,35.8981818 34.07768,33.7585455 35.131824,31.9141818 C35.414288,31.4065455 35.571536,31.0821818 35.760816,31.1476364 C35.903504,31.1970909 35.89768,31.7803636 35.808864,32.304 C35.246848,35.632 34.479536,37.5010909 32.040736,39.3949091 C31.261776,40.0014545 30.035824,40.128 30.195984,40.5934545 C30.236752,40.7141818 30.76528,40.7010909 31.18752,40.6589091 C37.679824,40.2443636 43.109248,32.5963636 44.547776,27.6014545 C44.6992,27.2494545 44.744336,26.9192727 44.585632,26.7956364 C44.389072,26.6443636 44.105152,26.992 43.813952,27.248 C43.072848,27.8996364 42.053648,28.5774545 41.115984,28.8727273" id="Fill-4"></path>
                <path d="M120.73152,61.2712727 L120.73152,59.4574545 C120.73152,54.0989091 117.692848,50.3185455 112.197904,50.3185455 C106.06232,50.3185455 103.204192,55.0632727 103.204192,60.7301818 C103.204192,66.4378182 105.677936,70.832 111.890688,70.832 C116.52368,70.832 119.919072,68.6370909 120.49856,64.24 L116.64016,64.24 C116.213552,67.0545455 114.786672,68.1716364 111.931456,68.1716364 C108.183712,68.1716364 106.941744,64.8421818 106.941744,61.2712727 L120.73152,61.2712727 L120.73152,61.2712727 Z M107.02328,58.7258182 C107.049488,55.7061818 108.87968,52.9803636 111.931456,52.9803636 C115.479728,52.9803636 116.867296,55.4094545 116.867296,58.7258182 L107.02328,58.7258182 L107.02328,58.7258182 Z" id="Fill-5"></path>
                <path d="M125.176688,42.4232727 L128.845808,42.4232727 L128.845808,70.256 L125.176688,70.256 L125.176688,42.4232727 Z" id="Fill-6"></path>
                <path d="M140.340928,70.2545455 L140.340928,53.4530909 L144.815216,53.4530909 L144.815216,50.9047273 L140.340928,50.9047273 L140.340928,47.7803636 C140.340928,45.5432727 141.419824,45.1592727 143.506272,45.1592727 C144.120704,45.1592727 144.74096,45.2392727 145.358304,45.2727273 L145.358304,42.2312727 C144.499264,42.0363636 143.622752,41.8458182 142.733136,41.8458182 C139.260576,41.8458182 136.673264,43.584 136.673264,47.2887273 L136.673264,50.9047273 L132.893488,50.9047273 L132.893488,53.4530909 L136.673264,53.4530909 L136.673264,70.2545455 L140.340928,70.2545455" id="Fill-7"></path>
                <path d="M146.922048,50.9047273 L146.922048,53.4530909 L150.241728,53.4530909 L150.241728,65.7847273 C150.241728,68.3578182 150.278128,70.8305455 155.725024,70.8305455 C156.572416,70.8305455 157.368848,70.752 158.233712,70.6021818 L158.233712,67.7890909 C157.636752,67.9316364 156.882544,68.0189091 156.3016,68.0189091 C154.989744,68.0189091 153.910848,67.36 153.910848,65.9767273 L153.910848,53.4530909 L158.386592,53.4530909 L158.386592,50.9047273 L153.910848,50.9047273 L153.910848,45.6232727 L150.241728,46.7796364 L150.241728,50.9076364 L146.922048,50.9047273" id="Fill-8"></path>
                <path d="M80.789072,45.7367273 L86.496592,45.7367273 C92.93648,45.7367273 95.60824,50.5905455 95.60824,56.3403636 C95.60824,62.0916364 92.93648,66.9410909 86.496592,66.9410909 L80.789072,66.9410909 L80.789072,45.7367273 L80.789072,45.7367273 Z M76.924848,70.2545455 L86.495136,70.2545455 C98.409584,70.2545455 99.660288,60.1789091 99.660288,56.3403636 C99.660288,52.5018182 98.409584,42.4232727 86.495136,42.4232727 L76.924848,42.4232727 L76.924848,70.2545455 L76.924848,70.2545455 Z" id="Fill-9"></path>
            </g>
        </g>
    </g>
</svg>